<?xml version="1.0" standalone="no"?>
<!DOCTYPE svg PUBLIC "-//W3C//DTD SVG 20010904//EN"
 "http://www.w3.org/TR/2001/REC-SVG-20010904/DTD/svg10.dtd">
<svg version="1.0" xmlns="http://www.w3.org/2000/svg"
 width="887.000000pt" height="1280.000000pt" viewBox="0 0 887.000000 1280.000000"
 preserveAspectRatio="xMidYMid meet">
<metadata>
Created by potrace 1.15, written by Peter Selinger 2001-2017
</metadata>
<g transform="translate(0.000000,1280.000000) scale(0.100000,-0.100000)"
fill="#ff70f0" stroke="none">
<path d="M8188 12482 c-40 -21 -143 -83 -228 -139 l-155 -101 -230 -66 c-1338
-382 -2390 -883 -3200 -1524 -772 -612 -1256 -1289 -1444 -2022 -100 -393
-111 -852 -29 -1205 135 -583 532 -1058 1027 -1229 178 -62 281 -79 486 -80
113 -1 208 4 255 13 304 55 547 210 660 422 46 87 250 692 239 711 -10 17
-104 88 -117 88 -4 0 -59 -34 -121 -75 -128 -84 -311 -180 -416 -218 -330
-118 -761 -64 -1029 127 -74 53 -195 178 -240 249 -153 239 -216 515 -203 891
7 193 23 316 67 487 157 619 608 1221 1315 1753 632 477 1406 856 2397 1175
87 28 161 51 164 51 3 0 -36 -46 -88 -102 -804 -874 -1307 -1995 -1448 -3229
-69 -601 -41 -1143 111 -2149 160 -1060 197 -1402 206 -1880 21 -1116 -222
-2027 -717 -2689 -506 -677 -1140 -958 -1940 -859 -372 45 -673 175 -939 402
-45 38 -81 76 -81 83 0 23 77 156 147 255 120 169 216 282 398 464 189 190
279 266 538 454 383 277 565 447 711 665 87 130 176 346 192 465 4 28 10 48
15 43 17 -17 39 -190 39 -307 0 -86 -6 -152 -22 -229 l-22 -108 44 -39 c25
-22 52 -42 62 -45 19 -7 396 142 488 192 138 77 235 206 274 364 23 94 21 265
-4 364 -85 331 -432 648 -861 785 l-107 33 -27 66 c-32 80 -119 229 -177 302
-94 121 -235 235 -366 299 -114 55 -187 71 -337 77 -126 4 -150 2 -236 -20
-184 -48 -335 -135 -478 -276 -129 -128 -226 -265 -307 -437 -20 -41 -37 -74
-40 -74 -2 0 -17 29 -33 65 -48 104 -139 254 -211 345 -152 191 -319 312 -525
381 -95 31 -108 33 -250 33 -173 1 -230 -11 -364 -75 -205 -97 -390 -287 -510
-524 -107 -209 -157 -404 -192 -750 -14 -143 -7 -289 21 -445 27 -150 50 -220
121 -365 127 -261 336 -481 710 -750 l146 -105 6 -158 c22 -582 307 -1067 832
-1418 560 -373 1374 -484 2130 -289 690 179 1392 616 1924 1198 453 495 697
926 875 1543 205 712 256 1462 155 2324 -36 315 -81 604 -198 1290 -188 1103
-225 1745 -140 2430 72 580 235 1134 480 1631 184 373 366 645 622 928 48 54
68 68 122 87 197 69 324 189 325 306 0 59 -28 117 -73 149 -57 41 -106 39
-199 -9z m-6528 -7413 c272 -63 501 -263 664 -580 54 -106 67 -124 89 -127 24
-3 31 6 81 105 129 256 293 427 509 528 137 64 207 79 367 79 161 0 244 -19
379 -89 85 -44 233 -159 244 -189 6 -14 -11 -16 -139 -16 -565 0 -1105 -198
-1584 -580 -128 -102 -371 -345 -460 -458 -206 -264 -344 -532 -415 -812 -15
-58 -29 -111 -31 -118 -4 -14 -228 133 -353 232 -162 129 -300 293 -366 438
-108 237 -121 552 -35 868 32 117 46 154 97 254 115 229 320 402 547 462 139
37 256 38 406 3z m2016 -720 c53 -6 130 -19 172 -29 101 -26 281 -116 358
-180 l61 -50 7 -81 c13 -142 -6 -287 -55 -429 -91 -259 -274 -452 -680 -716
-74 -48 -165 -107 -204 -132 -328 -213 -707 -575 -877 -839 l-42 -65 -20 37
c-45 80 -167 235 -268 341 l-106 111 -8 99 c-13 147 -8 383 11 518 48 352 172
635 393 899 328 390 768 571 1258 516z"/>
</g>
</svg>
